<svg xmlns="http://www.w3.org/2000/svg" viewBox="0 0 200 100" width="200" height="100">
  <!-- Dark background keyboard logo (white keys on black) -->
  <rect width="200" height="100" rx="16" ry="16" fill="#000000"/>
  <!-- Row 1: function keys -->
  <rect x="10" y="10" width="24" height="14" rx="5" ry="5" fill="none" stroke="white" stroke-width="2.5"/>
  <rect x="40" y="10" width="24" height="14" rx="5" ry="5" fill="none" stroke="white" stroke-width="2.5"/>
  <rect x="70" y="10" width="24" height="14" rx="5" ry="5" fill="none" stroke="white" stroke-width="2.5"/>
  <rect x="100" y="10" width="24" height="14" rx="5" ry="5" fill="none" stroke="white" stroke-width="2.5"/>
  <rect x="130" y="10" width="24" height="14" rx="5" ry="5" fill="none" stroke="white" stroke-width="2.5"/>
  <rect x="160" y="10" width="30" height="14" rx="5" ry="5" fill="none" stroke="white" stroke-width="2.5"/>
  <!-- Row 2: number row -->
  <rect x="10" y="30" width="14" height="14" rx="5" ry="5" fill="none" stroke="white" stroke-width="2.5"/>
  <rect x="30" y="30" width="14" height="14" rx="5" ry="5" fill="none" stroke="white" stroke-width="2.5"/>
  <rect x="50" y="30" width="14" height="14" rx="5" ry="5" fill="none" stroke="white" stroke-width="2.5"/>
  <rect x="70" y="30" width="14" height="14" rx="5" ry="5" fill="none" stroke="white" stroke-width="2.5"/>
  <rect x="90" y="30" width="14" height="14" rx="5" ry="5" fill="none" stroke="white" stroke-width="2.5"/>
  <rect x="110" y="30" width="14" height="14" rx="5" ry="5" fill="none" stroke="white" stroke-width="2.5"/>
  <rect x="130" y="30" width="14" height="14" rx="5" ry="5" fill="none" stroke="white" stroke-width="2.5"/>
  <rect x="150" y="30" width="14" height="14" rx="5" ry="5" fill="none" stroke="white" stroke-width="2.5"/>
  <rect x="170" y="30" width="20" height="14" rx="5" ry="5" fill="none" stroke="white" stroke-width="2.5"/>
  <!-- Row 3: home row -->
  <rect x="10" y="50" width="20" height="14" rx="5" ry="5" fill="none" stroke="white" stroke-width="2.5"/>
  <rect x="36" y="50" width="14" height="14" rx="5" ry="5" fill="none" stroke="white" stroke-width="2.5"/>
  <rect x="56" y="50" width="14" height="14" rx="5" ry="5" fill="none" stroke="white" stroke-width="2.5"/>
  <rect x="76" y="50" width="14" height="14" rx="5" ry="5" fill="none" stroke="white" stroke-width="2.5"/>
  <rect x="96" y="50" width="14" height="14" rx="5" ry="5" fill="none" stroke="white" stroke-width="2.5"/>
  <rect x="116" y="50" width="14" height="14" rx="5" ry="5" fill="none" stroke="white" stroke-width="2.5"/>
  <rect x="136" y="50" width="14" height="14" rx="5" ry="5" fill="none" stroke="white" stroke-width="2.5"/>
  <rect x="156" y="50" width="14" height="14" rx="5" ry="5" fill="none" stroke="white" stroke-width="2.5"/>
  <rect x="176" y="50" width="14" height="14" rx="5" ry="5" fill="none" stroke="white" stroke-width="2.5"/>
  <!-- Row 4: bottom row with spacebar -->
  <rect x="10" y="70" width="24" height="14" rx="5" ry="5" fill="none" stroke="white" stroke-width="2.5"/>
  <rect x="40" y="70" width="14" height="14" rx="5" ry="5" fill="none" stroke="white" stroke-width="2.5"/>
  <rect x="60" y="70" width="80" height="14" rx="5" ry="5" fill="none" stroke="white" stroke-width="2.5"/>
  <rect x="146" y="70" width="24" height="14" rx="5" ry="5" fill="none" stroke="white" stroke-width="2.5"/>
  <rect x="176" y="70" width="14" height="14" rx="5" ry="5" fill="none" stroke="white" stroke-width="2.5"/>
</svg>
